Coordinates
version=1
nRows=43
nColumns=12
inDegrees=yes

Units are S.I. units (second, meters, Newtons, ...)
Angles are in degrees

endheader
time	SC_y	SC_z	SC_x	AC_y	AC_z	AC_x	GH_y	GH_z	GH_yy	EL_x	PS_y
       0.0              -24.03          25.68          27.53          44.21          8.489         -14.91         -139.5           53.7          121.2          26.25          153.5
   0.01495              -24.03          25.68          27.54          44.21          8.485         -14.91         -139.5           53.7          121.1          26.26          153.5
    0.0299              -24.04          25.68          27.54          44.21          8.481         -14.91         -139.5           53.7          121.1          26.26          153.5
   0.04485              -24.04          25.68          27.55          44.21          8.478         -14.91         -139.5           53.7          121.1          26.27          153.4
    0.0598              -24.05          25.68          27.55          44.21          8.473         -14.91         -139.4           53.7          121.0          26.27          153.4
   0.07475              -24.06          25.68          27.56          44.21          8.469         -14.91         -139.4          53.69          121.0          26.28          153.4
    0.0897              -24.06          25.68          27.56           44.2          8.464         -14.91         -139.4          53.69          120.9          26.29          153.4
    0.1047              -24.07          25.68          27.57           44.2          8.459         -14.91         -139.4          53.69          120.9          26.29          153.4
    0.1196              -24.07          25.68          27.57           44.2          8.453         -14.91         -139.3          53.69          120.8           26.3          153.4
    0.1346              -24.08          25.68          27.58           44.2          8.448         -14.91         -139.3          53.68          120.8          26.31          153.3
    0.1495              -24.09          25.68          27.59           44.2          8.441         -14.91         -139.3          53.68          120.7          26.32          153.3
    0.1645               -24.1          25.68          27.59           44.2          8.434         -14.91         -139.3          53.68          120.6          26.33          153.3
    0.1794              -24.11          25.68           27.6           44.2          8.427         -14.91         -139.2          53.67          120.5          26.34          153.3
    0.1944              -24.12          25.68          27.61           44.2          8.419         -14.91         -139.2          53.67          120.5          26.35          153.2
    0.2093              -24.13          25.68          27.62           44.2          8.411         -14.91         -139.1          53.67          120.4          26.36          153.2
    0.2243              -24.14          25.68          27.63          44.19          8.401         -14.91         -139.1          53.66          120.3          26.37          153.2
    0.2392              -24.15          25.67          27.64          44.19          8.391          -14.9         -139.1          53.66          120.2          26.39          153.1
    0.2542              -24.17          25.67          27.65          44.19           8.38          -14.9         -139.0          53.65          120.1           26.4          153.1
    0.2691              -24.18          25.67          27.67          44.19          8.368          -14.9         -139.0          53.65          119.9          26.42          153.1
    0.2841               -24.2          25.67          27.68          44.19          8.355          -14.9         -138.9          53.64          119.8          26.44          153.0
     0.299              -24.22          25.67           27.7          44.19          8.341          -14.9         -138.8          53.63          119.7          26.46          153.0
     0.314              -24.24          25.67          27.72          44.18          8.325          -14.9         -138.7          53.62          119.5          26.48          152.9
    0.3289              -24.26          25.67          27.74          44.18          8.307          -14.9         -138.7          53.62          119.3           26.5          152.9
    0.3439              -24.29          25.67          27.76          44.18          8.288         -14.89         -138.6          53.61          119.1          26.53          152.8
    0.3588              -24.31          25.66          27.78          44.17          8.266         -14.89         -138.5           53.6          118.9          26.56          152.7
    0.3738              -24.35          25.66          27.81          44.17          8.242         -14.89         -138.4          53.59          118.6          26.59          152.6
    0.3887              -24.38          25.66          27.84          44.17          8.215         -14.89         -138.2          53.57          118.4          26.63          152.5
    0.4037              -24.42          25.66          27.87          44.16          8.185         -14.88         -138.1          53.56          118.1          26.67          152.4
    0.4186              -24.46          25.65          27.91          44.16           8.15         -14.88         -137.9          53.54          117.7          26.72          152.3
    0.4336              -24.51          25.65          27.95          44.15          8.111         -14.88         -137.8          53.52          117.3          26.77          152.2
    0.4485              -24.57          25.65           28.0          44.14          8.067         -14.87         -137.5           53.5          116.8          26.83          152.0
    0.4635              -24.64          25.64          28.06          44.13          8.016         -14.87         -137.3          53.48          116.3           26.9          151.8
    0.4784              -24.71          25.64          28.12          44.13          7.957         -14.86         -137.0          53.45          115.7          26.98          151.6
    0.4934               -24.8          25.63           28.2          44.11          7.888         -14.85         -136.7          53.42          115.0          27.08          151.4
    0.5083               -24.9          25.63          28.29           44.1          7.808         -14.85         -136.3          53.38          114.2          27.19          151.1
    0.5233              -25.02          25.62           28.4          44.09          7.714         -14.84         -135.9          53.33          113.2          27.32          150.8
    0.5382              -25.17          25.61          28.52          44.07          7.601         -14.82         -135.4          53.28          112.1          27.47          150.4
    0.5532              -25.34           25.6          28.67          44.05          7.467         -14.81         -134.8          53.21          110.7          27.66          149.9
    0.5681              -25.55          25.58          28.85          44.02          7.304         -14.79         -134.0          53.13          109.0          27.88          149.3
    0.5831               -25.8          25.57          29.07          43.99          7.105         -14.77         -133.1          53.04          107.0          28.15          148.7
     0.598              -26.12          25.55          29.34          43.95          6.859         -14.75         -131.9          52.92          104.4          28.49          147.8
     0.613              -26.51          25.52          29.68          43.91          6.553         -14.72         -130.5          52.77          101.3          28.91          146.7
    0.6279              -27.01          25.49          30.11          43.85          6.167         -14.68         -128.7          52.59          97.34          29.44          145.4
